<svg width="50" height="50" viewBox="0 0 50 50" fill="none" xmlns="http://www.w3.org/2000/svg">
<g clip-path="url(#clip0_35_217)">
<path d="M20.6055 0.712913C20.0196 0.0976789 19.1406 -0.136696 18.3203 0.0781476C17.5 0.292991 16.8653 0.947288 16.6504 1.7676L15.1074 7.87112L9.05276 6.16213C8.23244 5.92776 7.35354 6.16213 6.75783 6.75783C6.16213 7.35354 5.92776 8.23244 6.16213 9.05276L7.87112 15.1074L1.7676 16.6602C0.947288 16.8653 0.302757 17.5098 0.0781476 18.3301C-0.146462 19.1504 0.0976789 20.0196 0.712913 20.6055L5.22463 25L0.712913 29.3946C0.0976789 29.9805 -0.136696 30.8594 0.0781476 31.6797C0.292991 32.5 0.947288 33.1348 1.7676 33.3496L7.87112 34.8926L6.16213 40.9473C5.92776 41.7676 6.16213 42.6465 6.75783 43.2422C7.35354 43.8379 8.23244 44.0723 9.05276 43.8379L15.1074 42.1289L16.6504 48.2324C16.8555 49.0528 17.5 49.6973 18.3203 49.9219C19.1406 50.1465 20.0098 49.9024 20.6055 49.2969L25 44.7852L29.3946 49.2969C29.9903 49.9024 30.8594 50.1465 31.6797 49.9219C32.5 49.6973 33.1348 49.0528 33.3496 48.2324L34.8926 42.1289L40.9473 43.8379C41.7676 44.0723 42.6465 43.8379 43.2422 43.2422C43.8379 42.6465 44.0723 41.7676 43.8379 40.9473L42.1289 34.8926L48.2324 33.3496C49.0528 33.1446 49.6973 32.5 49.9219 31.6797C50.1465 30.8594 49.9024 29.9903 49.2969 29.3946L44.7852 25L49.2969 20.6055C49.9024 20.0098 50.1465 19.1406 49.9219 18.3203C49.6973 17.5 49.0528 16.8653 48.2324 16.6504L42.1289 15.1074L43.8379 9.05276C44.0723 8.23244 43.8379 7.35354 43.2422 6.75783C42.6465 6.16213 41.7676 5.92776 40.9473 6.16213L34.8926 7.87112L33.3399 1.7676C33.1348 0.947288 32.4903 0.302757 31.6699 0.0781476C30.8496 -0.146462 29.9805 0.0976789 29.3946 0.712913L25 5.22463L20.6055 0.712913Z" fill="black"/>
</g>
<defs>
<clipPath id="clip0_35_217">
<rect width="50" height="50" fill="white"/>
</clipPath>
</defs>
</svg>
