<svg width="30" height="40" viewBox="0 0 30 40" fill="none" xmlns="http://www.w3.org/2000/svg">
<g clip-path="url(#clip0_40_249)">
<path d="M5 0C2.24219 0 0 2.24219 0 5V35C0 37.7578 2.24219 40 5 40H25C27.7578 40 30 37.7578 30 35V12.5H20C18.6172 12.5 17.5 11.3828 17.5 10V0H5ZM20 0V10H30L20 0ZM5 17.5H6.875C9.28906 17.5 11.25 19.4609 11.25 21.875C11.25 24.2891 9.28906 26.25 6.875 26.25H6.25V28.75C6.25 29.4375 5.6875 30 5 30C4.3125 30 3.75 29.4375 3.75 28.75V25V18.75C3.75 18.0625 4.3125 17.5 5 17.5ZM6.875 23.75C7.91406 23.75 8.75 22.9141 8.75 21.875C8.75 20.8359 7.91406 20 6.875 20H6.25V23.75H6.875ZM12.5 18.75C12.5 18.0625 13.0625 17.5 13.75 17.5H15.625C17.6953 17.5 19.375 19.1797 19.375 21.25V26.25C19.375 28.3203 17.6953 30 15.625 30H13.75C13.0625 30 12.5 29.4375 12.5 28.75V18.75ZM15 27.5H15.625C16.3125 27.5 16.875 26.9375 16.875 26.25V21.25C16.875 20.5625 16.3125 20 15.625 20H15V27.5ZM22.5 17.5H26.25C26.9375 17.5 27.5 18.0625 27.5 18.75C27.5 19.4375 26.9375 20 26.25 20H23.75V22.5H26.25C26.9375 22.5 27.5 23.0625 27.5 23.75C27.5 24.4375 26.9375 25 26.25 25H23.75V28.75C23.75 29.4375 23.1875 30 22.5 30C21.8125 30 21.25 29.4375 21.25 28.75V23.75V18.75C21.25 18.0625 21.8125 17.5 22.5 17.5Z" fill="black"/>
</g>
<defs>
<clipPath id="clip0_40_249">
<rect width="30" height="40" fill="white"/>
</clipPath>
</defs>
</svg>
