<svg width="50" height="45" viewBox="0 0 50 45" fill="none" xmlns="http://www.w3.org/2000/svg">
<g clip-path="url(#clip0_36_222)">
<path d="M49.9826 22.1788C49.9826 23.7413 48.6806 24.9653 47.2049 24.9653H44.4271L44.4879 38.8715C44.4879 39.1059 44.4705 39.3403 44.4444 39.5746V40.9722C44.4444 42.8906 42.8906 44.4444 40.9722 44.4444H39.5833C39.4879 44.4444 39.3924 44.4444 39.2969 44.4358C39.1754 44.4444 39.0538 44.4444 38.9323 44.4444H36.1111H34.0278C32.1094 44.4444 30.5556 42.8906 30.5556 40.9722V38.8889V33.3333C30.5556 31.7969 29.3142 30.5556 27.7778 30.5556H22.2222C20.6858 30.5556 19.4444 31.7969 19.4444 33.3333V38.8889V40.9722C19.4444 42.8906 17.8906 44.4444 15.9722 44.4444H13.8889H11.1198C10.9896 44.4444 10.8594 44.4358 10.7292 44.4271C10.625 44.4358 10.5208 44.4444 10.4167 44.4444H9.02778C7.10938 44.4444 5.55556 42.8906 5.55556 40.9722V31.25C5.55556 31.1719 5.55556 31.0851 5.56424 31.0069V24.9653H2.77778C1.21528 24.9653 0 23.75 0 22.1788C0 21.3976 0.260417 20.7031 0.868056 20.0955L23.125 0.694444C23.7326 0.0868056 24.4271 0 25.0347 0C25.6424 0 26.3368 0.173611 26.8576 0.607639L49.0278 20.0955C49.7222 20.7031 50.0694 21.3976 49.9826 22.1788Z" fill="black"/>
</g>
<defs>
<clipPath id="clip0_36_222">
<rect width="50" height="44.4444" fill="white"/>
</clipPath>
</defs>
</svg>
