<svg width="50" height="50" viewBox="0 0 50 50" fill="none" xmlns="http://www.w3.org/2000/svg">
<g clip-path="url(#clip0_6_131)">
<path d="M49.5717 24.7859C49.5749 27.6067 49.0956 30.4073 48.1546 33.0665C48.154 33.0683 48.1534 33.0695 48.1528 33.0712C48.1487 33.0836 48.1446 33.0948 48.1399 33.1071V33.1077C47.9391 33.6717 47.7185 34.2263 47.4781 34.7715C46.8717 36.1463 46.1414 37.463 45.2963 38.7054C45.0914 39.0081 44.8792 39.3058 44.6598 39.5986C44.4184 39.9224 44.1694 40.2397 43.9127 40.5506C43.6761 40.8373 43.4331 41.1185 43.1839 41.3942C42.8877 41.7227 42.5828 42.0428 42.269 42.3544C41.5304 43.09 40.7462 43.7782 39.9211 44.415C39.7762 44.5275 39.6298 44.638 39.4819 44.7465C39.1375 45.0008 38.7862 45.2461 38.428 45.4824C37.6402 46.0032 36.8231 46.4781 35.9806 46.9048C35.8352 46.979 35.6886 47.052 35.5414 47.1226C34.9721 47.3976 34.3913 47.6505 33.7988 47.8815C33.6298 47.9481 33.4603 48.0122 33.2889 48.074C33.2601 48.0852 33.2312 48.0958 33.2018 48.1058C31.1702 48.8391 29.051 49.3019 26.8988 49.4823C26.7492 49.4958 26.5995 49.5072 26.4496 49.5164C26.2906 49.5276 26.1314 49.5367 25.9721 49.5435C25.8461 49.55 25.7207 49.5547 25.5941 49.5583C25.5682 49.5594 25.5417 49.5606 25.5158 49.5606C25.3457 49.5659 25.1749 49.5692 25.0036 49.5706C24.9312 49.5712 24.8588 49.5718 24.7858 49.5718C24.7516 49.5718 24.7175 49.5718 24.6833 49.5712C24.1894 49.5694 23.6992 49.5533 23.2127 49.5229C23.2027 49.5223 23.1927 49.5212 23.1826 49.5212C23.0084 49.5094 22.8347 49.497 22.6616 49.4817C22.0452 49.4299 21.4355 49.3553 20.8324 49.258C20.6935 49.2362 20.5549 49.2127 20.4168 49.1873C19.8168 49.0814 19.2248 48.9536 18.6405 48.8041C18.4669 48.7599 18.2942 48.7138 18.1224 48.6657C17.1314 48.3899 16.1586 48.0521 15.21 47.6543C14.6654 47.4258 14.131 47.179 13.6068 46.9136C13.3707 46.7941 13.137 46.6709 12.9056 46.5439C12.8426 46.5098 12.7802 46.475 12.7178 46.4403C12.2621 46.186 11.8159 45.9179 11.379 45.6361C11.0211 45.4059 10.6698 45.1665 10.3252 44.9178C10.2828 44.8884 10.241 44.8578 10.1992 44.8271C9.93485 44.6346 9.67483 44.4372 9.41912 44.2349C8.86276 43.7939 8.32623 43.3306 7.80951 42.8449C7.45215 42.5093 7.10518 42.1631 6.76862 41.8063C4.80758 39.7324 3.21885 37.3359 2.07225 34.722C1.82852 34.1657 1.60479 33.5991 1.40109 33.0224C1.40043 33.0211 1.40003 33.0197 1.39991 33.0182C0.470293 30.3732 -0.00311943 27.5895 -0.000107791 24.7859C-0.000107791 14.3794 6.41361 5.47056 15.5037 1.79683C18.7433 0.493148 22.2212 -0.113179 25.7108 0.0173756C29.2004 0.147931 32.6233 1.01244 35.7563 2.55454C43.9422 6.60094 49.5717 15.0364 49.5717 24.7859Z" fill="#F2F2F2"/>
<path d="M35.7565 2.55454V33.876H15.5038V1.79683C18.7434 0.493148 22.2213 -0.113179 25.7109 0.0173756C29.2005 0.147931 32.6234 1.01244 35.7565 2.55454Z" fill="white"/>
<path d="M20.3775 16.8378C20.9269 15.9292 21.578 14.959 22.5975 14.6623C23.7782 14.3187 24.9911 15.0012 26.0199 15.6748C29.0967 17.6892 32.0596 19.8723 34.8952 22.214L34.8921 22.2493C32.6845 22.097 30.4769 21.9448 28.2692 21.7926C26.6742 21.6826 25.0244 21.5574 23.6149 20.8029C23.08 20.5165 22.5586 20.1341 21.9525 20.1074C21.1995 20.0743 20.5429 20.6002 20.0269 21.1497C16.9747 24.3999 16.0914 29.3703 12.6671 32.2258C14.8264 26.9007 17.4046 21.7552 20.3775 16.8378Z" fill="#F2F2F2"/>
<path d="M37.2378 3.3534C37.1866 3.31925 37.1348 3.28687 37.0835 3.2539C35.6029 2.30696 34.0159 1.53768 32.3554 0.961942L31.9703 6.27354H29.5294V0.186574C29.3758 0.154782 29.2209 0.124756 29.0661 0.0964966V6.27354H26.1654C24.5685 6.27354 23.037 5.63919 21.9079 4.51003C20.7787 3.38087 20.1444 1.84939 20.1444 0.252519C19.9889 0.286077 19.8347 0.321985 19.6804 0.360253V6.27354H17.3178L16.951 1.20862C15.2446 1.86308 13.6245 2.72373 12.1269 3.7714C12.101 3.78907 12.0751 3.80732 12.0498 3.82498C11.9197 3.91623 11.7913 4.00925 11.6636 4.10346V33.6693H18.6266L18.5035 31.9649L17.8265 13.3049H31.4611L30.784 31.9649L30.661 33.6693H37.5469V3.55828C37.4444 3.48881 37.3414 3.42052 37.2378 3.3534ZM19.6804 11.7594H17.7146L17.3514 6.73747H19.6804V11.7594ZM29.0661 11.7594H25.7645V11.6599C25.7645 11.6121 25.755 11.5647 25.7367 11.5205C25.7184 11.4764 25.6915 11.4362 25.6577 11.4024C25.6238 11.3686 25.5837 11.3418 25.5394 11.3236C25.4952 11.3053 25.4479 11.296 25.4 11.2961H23.9647C23.9169 11.2961 23.8696 11.3055 23.8254 11.3237C23.7813 11.342 23.7412 11.3688 23.7074 11.4026C23.6736 11.4364 23.6468 11.4765 23.6285 11.5207C23.6102 11.5648 23.6008 11.6121 23.6008 11.6599V11.7594H20.1444V6.73747H29.0661V11.7594ZM29.5294 11.7594V6.73747H31.9368L31.5735 11.7594H29.5294Z" fill="#3F3D56"/>
<path d="M48.1548 33.0664C48.1542 33.0682 48.1536 33.0693 48.153 33.0711C48.1489 33.0835 48.1448 33.0947 48.14 33.107V33.1076C47.9393 33.6716 47.7187 34.2262 47.4783 34.7714L2.07242 34.7219C1.82869 34.1656 1.60497 33.599 1.40126 33.0222C1.4006 33.021 1.4002 33.0196 1.40009 33.0181L48.1548 33.0664Z" fill="#3F3D56"/>
<path d="M31.1861 33.2601H23.2382V34.3198H31.1861V33.2601Z" fill="white"/>
<path d="M12.7173 43.6379C12.7456 43.3889 12.7846 43.1414 12.8345 42.8955C13.1069 41.5622 13.6916 40.3125 14.5406 39.2489C15.0264 39.276 15.452 39.2018 15.4926 38.261C15.5003 38.0938 15.6245 37.9484 15.6516 37.7835C15.6057 37.79 15.558 37.7935 15.5121 37.7965C15.4973 37.797 15.482 37.7982 15.4679 37.7988H15.4626C15.4116 37.8012 15.361 37.7888 15.317 37.763C15.2729 37.7373 15.2372 37.6994 15.2142 37.6538C15.1913 37.6082 15.182 37.557 15.1875 37.5062C15.193 37.4555 15.2131 37.4074 15.2454 37.3679C15.2654 37.3437 15.2854 37.319 15.3054 37.2943C15.3354 37.256 15.3666 37.2189 15.3973 37.1812C15.4008 37.1771 15.4037 37.1736 15.4073 37.1695C15.442 37.1265 15.4767 37.0835 15.5121 37.0405C15.4482 36.9414 15.3624 36.8584 15.2613 36.798C14.911 36.5925 14.4276 36.735 14.1745 37.0517C13.9207 37.3684 13.8724 37.8135 13.9607 38.2092C14.0361 38.5483 14.2004 38.8591 14.3846 39.1547C14.3658 39.1788 14.3458 39.2024 14.3269 39.2271C13.9797 39.6737 13.677 40.1533 13.4232 40.6589C13.495 40.0978 12.6172 38.0726 12.2775 37.6434C11.8695 37.1282 11.0335 37.3531 10.9617 38.0066C10.9611 38.0125 10.9599 38.019 10.9594 38.0255C11.01 38.0537 11.0594 38.0838 11.1077 38.1161C11.1684 38.1567 11.2153 38.2146 11.2425 38.2823C11.2697 38.3499 11.2758 38.4243 11.26 38.4955C11.2442 38.5667 11.2073 38.6315 11.1541 38.6813C11.1008 38.7312 11.0338 38.7638 10.9617 38.7749L10.9541 38.7761C10.2794 39.7399 12.443 42.2485 12.9852 41.6857C12.8489 42.0687 12.7401 42.461 12.6596 42.8596C12.5874 43.2112 12.5371 43.5669 12.5089 43.9246C12.4746 44.3752 12.4767 44.8279 12.5154 45.2781C12.5143 45.2729 12.5135 45.2676 12.513 45.2623C12.3923 44.2814 10.3276 42.8231 9.72477 42.9444C9.37741 43.0144 9.03535 42.9986 9.08834 43.3489C9.08893 43.3547 9.09011 43.36 9.0907 43.3659C9.18432 43.4037 9.27537 43.4476 9.36328 43.4972C9.41391 43.5255 9.46337 43.5561 9.51164 43.5879C9.56842 43.6259 9.61332 43.6791 9.64116 43.7415C9.66899 43.8039 9.67863 43.8728 9.66897 43.9405C9.65931 44.0081 9.63074 44.0716 9.58655 44.1237C9.54237 44.1758 9.48436 44.2143 9.41922 44.2349C9.67532 44.4368 9.93534 44.6343 10.1993 44.8272C10.2411 44.8578 10.2829 44.8884 10.3253 44.9178C10.6697 45.1663 11.021 45.4057 11.3791 45.6361C11.816 45.9175 12.2622 46.1856 12.7179 46.4403C12.7803 46.4751 12.8427 46.5098 12.9057 46.5439C12.7473 45.8923 12.6671 45.2241 12.6667 44.5534C12.6665 44.2475 12.6834 43.9419 12.7173 43.6379ZM13.0394 41.5344L13.0405 41.5326C13.0405 41.5337 13.0401 41.5347 13.0394 41.5355V41.5344ZM12.5701 45.768L12.5519 45.7274C12.5525 45.6973 12.5525 45.6679 12.5519 45.6373C12.5519 45.629 12.5501 45.6208 12.5501 45.6126C12.5572 45.665 12.5631 45.7173 12.5707 45.7697L12.5701 45.768ZM15.2742 45.8481C15.2807 45.821 15.286 45.8021 15.2925 45.775C15.2901 45.7692 15.2878 45.7633 15.2854 45.758C15.0894 45.2911 14.0543 46.2325 13.6069 46.9137C14.1309 47.1786 14.6653 47.4255 15.21 47.6543C15.2465 47.6084 15.2842 47.563 15.3213 47.5171C15.3248 47.513 15.3278 47.5095 15.3307 47.5053C15.4108 47.4064 15.4915 47.3087 15.5709 47.2098C15.5715 47.1904 15.5715 47.1709 15.5715 47.1521C15.5707 46.8685 15.536 46.5861 15.4679 46.3108C15.4132 46.3133 15.3591 46.299 15.3128 46.2697C15.2666 46.2404 15.2304 46.1976 15.2093 46.1471C15.1881 46.0966 15.183 46.0409 15.1946 45.9874C15.2063 45.9339 15.234 45.8852 15.2742 45.8481Z" fill="white"/>
<path d="M28.0097 33.5949C28.1511 33.6924 28.3121 33.7577 28.4814 33.7863C28.6507 33.8148 28.8243 33.8059 28.9898 33.7601C29.1553 33.7143 29.3088 33.6328 29.4394 33.5213C29.57 33.4098 29.6745 33.271 29.7457 33.1147L33.9019 33.5035L32.8815 31.5892L29.0912 31.5135C28.8207 31.4114 28.5221 31.412 28.2521 31.5153C27.982 31.6186 27.7593 31.8173 27.6259 32.0739C27.4926 32.3304 27.4581 32.627 27.5288 32.9073C27.5995 33.1876 27.7706 33.4323 28.0097 33.5949Z" fill="#FFB6B6"/>
<path d="M32.224 33.4639L37.9754 34.1087L37.9952 34.0834C38.0332 34.0349 41.7965 29.2177 42.4288 28.0709C42.8178 27.382 42.9594 26.5807 42.8302 25.8001L42.8259 25.781L42.811 25.7684C42.5044 25.5114 42.1194 25.3666 41.7194 25.3578C41.3195 25.3491 40.9285 25.4769 40.6109 25.7201C39.0839 26.9027 37.8527 28.4241 37.0144 30.1641L36.5388 31.1544L32.224 31.58V33.4639Z" fill="#6C63FF"/>
<path d="M27.5578 46.9368L26.4498 49.5166C26.2909 49.5278 26.1317 49.5368 25.9723 49.5437C25.8464 49.5502 25.721 49.5549 25.5944 49.5584L25.5514 49.572L25.5161 49.5608C25.3459 49.5661 25.1752 49.5694 25.0039 49.5708C24.9315 49.5714 24.859 49.572 24.786 49.572C24.7519 49.572 24.7177 49.572 24.6836 49.5714L24.7572 49.3194L24.8437 49.0209L25.1876 47.8387L25.6839 46.132L26.4221 46.4487L27.5578 46.9368Z" fill="#FFB6B6"/>
<path d="M35.5417 47.1228C34.9724 47.3977 34.3915 47.6507 33.799 47.8816L33.2197 46.9073L35.0872 46.0872L35.5417 47.1228Z" fill="#FFB6B6"/>
<path d="M39.4821 42.6943V44.7466C39.1377 45.001 38.7864 45.2463 38.4283 45.4825V42.6943H39.4821Z" fill="#CACACA"/>
<path d="M43.1841 41.3943C42.888 41.7229 42.583 42.0429 42.2692 42.3546C41.5307 43.0901 40.7465 43.7783 39.9213 44.4152H35.2232C35.0985 44.4152 34.9752 44.3886 34.8616 44.3371C34.748 44.2856 34.6466 44.2105 34.5644 44.1167L34.5638 44.1149C34.4659 44.0044 34.3978 43.8706 34.366 43.7263L34.3654 43.7252C34.3521 43.6632 34.3454 43.6001 34.3454 43.5368V42.2727C34.3456 42.0399 34.4381 41.8167 34.6026 41.652C34.7672 41.4873 34.9904 41.3947 35.2232 41.3943H43.1841Z" fill="#3F3D56"/>
<path d="M45.1199 36.4607L44.6106 38.6426C44.6604 38.9587 44.677 39.2791 44.6601 39.5987C44.4187 39.9225 44.1697 40.2398 43.913 40.5507C43.6763 40.8374 43.4333 41.1186 43.1841 41.3943C42.888 41.7229 42.583 42.0429 42.2692 42.3546C41.452 42.6113 40.4889 42.7161 39.4821 42.7231C39.1348 42.7261 38.7821 42.7167 38.4283 42.6978C36.9935 42.6225 35.5423 42.3923 34.3536 42.1532C34.0392 42.0908 33.7437 42.0272 33.4717 41.9654C32.9565 41.8494 32.5256 41.7411 32.2136 41.6587C31.8621 41.5668 31.6619 41.5074 31.6619 41.5074L30.3249 43.7464L29.1109 45.7787L27.5466 47.7751C27.3971 47.7886 27.2473 47.8 27.0974 47.8092C26.9385 47.8204 26.7793 47.8295 26.6199 47.8363C26.494 47.8428 26.3686 47.8475 26.242 47.851L26.199 47.8646L26.1637 47.8534L25.5961 47.6727L25.4048 47.612L24.7166 47.393C24.7166 47.393 24.8702 46.9091 25.1393 46.1019C25.2382 45.8058 25.9388 43.6162 26.6718 41.7046C26.889 41.1371 27.1139 40.5613 27.3453 39.9884C27.5348 39.518 27.7279 39.0494 27.9234 38.5872C28.2631 37.786 29.9045 37.3538 31.8373 37.1272C31.9357 37.116 32.0346 37.1048 32.1341 37.0942C33.119 36.9906 34.164 36.937 35.1413 36.9123C35.6306 36.8999 36.1028 36.8952 36.542 36.8946C36.6838 36.8946 36.8218 36.895 36.9558 36.8958H36.9564C37.3185 36.8976 37.6517 36.9029 37.9449 36.9087C38.002 36.9099 38.0574 36.9117 38.1115 36.9129H38.1121C38.1486 36.9135 38.1845 36.9146 38.2199 36.9152C38.861 36.9317 39.2543 36.9517 39.2543 36.9517L39.4068 35.7554L39.438 35.514L39.4674 35.2844V35.2838L39.4709 35.255L39.4951 35.2544L39.919 35.2462L43.482 35.1767L44.9996 35.1124L45.1199 36.4607Z" fill="#2F2E41"/>
<path d="M35.4511 46.1396C35.3056 46.2138 35.159 46.2868 35.0119 46.3574C34.4426 46.6323 33.8617 46.8853 33.2692 47.1163C33.1002 47.1828 32.9307 47.247 32.7594 47.3088C32.7405 47.2823 32.7211 47.2558 32.7017 47.2293C31.8845 46.1078 31.3758 45.3931 30.3249 43.7464C29.8851 43.0575 29.443 42.3393 29.0138 41.6057L32.1212 40.155L32.4697 39.9926L33.4717 41.9654L34.3654 43.7252L34.5644 44.1167L35.4511 46.1396Z" fill="#2F2E41"/>
<path d="M40.4914 22.3753C42.0724 22.3753 43.3541 21.0936 43.3541 19.5125C43.3541 17.9314 42.0724 16.6497 40.4914 16.6497C38.9103 16.6497 37.6286 17.9314 37.6286 19.5125C37.6286 21.0936 38.9103 22.3753 40.4914 22.3753Z" fill="#FFB6B6"/>
<path d="M45.6015 28.4109C45.5779 26.0465 45.6474 26.7312 45.4602 25.917C44.9574 23.7281 42.8703 23.3289 42.5065 23.2795C42.4677 23.1763 42.4082 23.0822 42.3315 23.003C42.2548 22.9239 42.1627 22.8613 42.0608 22.8193C41.9589 22.7773 41.8495 22.7567 41.7393 22.7587C41.6291 22.7608 41.5205 22.7856 41.4203 22.8314L40.7237 23.1926C40.0484 23.5017 40.4583 23.9483 40.2251 24.653L39.9802 25.4007L37.9732 30.9484L38.3794 33.059L38.38 33.0602L38.6538 34.482L39.4655 35.4067L39.4504 35.2591L39.4321 35.2874L39.4315 35.288L39.3844 35.358C39.4498 35.3939 39.5145 35.4293 39.5781 35.4646C39.743 35.5552 39.9037 35.6441 40.0603 35.7313C40.098 35.7525 40.1351 35.7731 40.1721 35.7943H40.1727C40.1963 35.8072 40.2198 35.8202 40.2428 35.8331C40.8304 36.1616 38.6556 36.7598 39.1389 37.0406C39.206 37.0795 39.2726 37.1183 39.3379 37.1566C41.5633 38.4583 43.339 40.0797 43.913 40.5507C44.1697 40.2398 44.4187 39.9225 44.6601 39.5987C44.8791 39.3061 45.0913 39.0084 45.2965 38.7056C45.3324 38.4689 45.3566 38.2322 45.3801 38.0003C45.4084 37.7212 45.2612 35.1361 45.3107 34.8517C45.3324 34.7257 45.2488 34.6062 45.1682 34.4908C45.0934 34.3831 45.0228 34.2818 45.0375 34.1864C45.0528 34.0881 45.1611 33.981 45.2665 33.8767C45.3813 33.7625 45.5002 33.6448 45.5173 33.5206C45.5644 33.1744 45.3707 32.827 45.4072 32.4785C45.4673 31.9115 45.5134 31.3428 45.5456 30.7723C45.5909 29.9846 45.6095 29.1975 45.6015 28.4109Z" fill="#6C63FF"/>
<path d="M29.4545 34.2094C29.5727 34.0848 29.7167 33.9877 29.8765 33.9248C30.0363 33.8619 30.208 33.8348 30.3794 33.8455C30.5508 33.8561 30.7177 33.9042 30.8685 33.9864C31.0193 34.0685 31.1503 34.1827 31.2522 34.321L35.2386 33.0828L34.6353 35.1664L30.9422 36.0228C30.6987 36.1785 30.4064 36.2395 30.1209 36.1942C29.8353 36.1489 29.5763 36.0004 29.3929 35.7769C29.2095 35.5534 29.1145 35.2704 29.1258 34.9815C29.1372 34.6926 29.2541 34.4179 29.4545 34.2094Z" fill="#FFB6B6"/>
<path d="M34.2874 35.362L41.6868 33.8365L39.7665 34.3122C39.7883 34.2546 41.9465 28.5353 42.2087 27.2524C42.3749 26.4788 42.2716 25.6717 41.9158 24.965L41.906 24.948L41.888 24.9404C41.5188 24.7864 41.1081 24.7628 40.7237 24.8735C40.3393 24.9842 40.0041 25.2226 39.7734 25.5494C38.6678 27.1331 37.9454 28.952 37.6632 30.8627L37.504 31.9498L34.8952 32.7302L34.2874 35.362Z" fill="#6C63FF"/>
<path d="M20.4976 33.0324C20.5236 33.1079 20.5728 33.1732 20.6382 33.219C20.7036 33.2649 20.7818 33.2888 20.8617 33.2873L22.4213 33.2472C22.5017 33.2456 22.5795 33.2181 22.643 33.1687C22.7064 33.1192 22.7522 33.0506 22.7734 32.973L22.9942 30.6129C23.0725 30.6484 23.1577 30.6659 23.2437 30.6642C23.3945 30.6604 23.5376 30.5969 23.6416 30.4876C23.7455 30.3782 23.8018 30.2321 23.798 30.0813C23.7942 29.9305 23.7307 29.7874 23.6214 29.6834C23.5121 29.5794 23.3659 29.5232 23.2151 29.527C23.1808 29.5268 23.1465 29.5304 23.1129 29.5376C23.0764 29.4981 23.032 29.4666 22.9825 29.4453C22.9331 29.424 22.8798 29.4132 22.8259 29.4138L20.4268 29.4757C20.4069 29.4765 20.3871 29.4789 20.3676 29.4831C20.315 29.4929 20.2651 29.5138 20.2213 29.5446C20.1774 29.5753 20.1407 29.615 20.1135 29.6611C20.0863 29.7072 20.0693 29.7586 20.0637 29.8118C20.058 29.865 20.0638 29.9189 20.0807 29.9696L20.4976 33.0324ZM23.0394 30.4527L23.1965 29.8903C23.2143 29.8253 23.2148 29.7568 23.1977 29.6916C23.2053 29.6916 23.212 29.688 23.2196 29.688C23.3273 29.6857 23.4315 29.7263 23.5093 29.8008C23.5871 29.8752 23.6323 29.9775 23.6348 30.0852C23.6373 30.1929 23.597 30.2972 23.5228 30.3752C23.4485 30.4532 23.3464 30.4986 23.2387 30.5014C23.1691 30.5036 23.1002 30.4867 23.0394 30.4527Z" fill="#2F2E41"/>
<path d="M20.3677 29.4831C20.4188 29.7753 20.9935 29.9808 21.6844 29.9451C22.3198 29.9158 22.8394 29.6927 22.9346 29.4283C22.8994 29.4178 22.8627 29.413 22.826 29.4138L20.4269 29.4757C20.407 29.4765 20.3872 29.4789 20.3677 29.4831Z" fill="#3F3D56"/>
<path d="M9.93451 27.3465V32.3923C9.93456 32.4566 9.96013 32.5182 10.0056 32.5637C10.0511 32.6092 10.1127 32.6347 10.177 32.6348H17.6543C17.7186 32.6347 17.7802 32.6092 17.8257 32.5637C17.8711 32.5182 17.8967 32.4566 17.8968 32.3923V27.3465C17.8966 27.2823 17.871 27.2207 17.8256 27.1753C17.7801 27.1299 17.7185 27.1044 17.6543 27.1043H10.177C10.1128 27.1044 10.0512 27.1299 10.0057 27.1753C9.96027 27.2207 9.93466 27.2823 9.93451 27.3465Z" fill="#3F3D56"/>
<path d="M10.1099 27.4094V32.3301C10.11 32.3644 10.1237 32.3973 10.148 32.4216C10.1722 32.4459 10.2052 32.4596 10.2395 32.4597H17.592C17.6264 32.4596 17.6593 32.4459 17.6836 32.4216C17.7079 32.3973 17.7216 32.3644 17.7216 32.3301V27.4094C17.7216 27.375 17.708 27.342 17.6837 27.3176C17.6594 27.2933 17.6264 27.2796 17.592 27.2795H10.2395C10.2051 27.2796 10.1722 27.2933 10.1479 27.3176C10.1236 27.342 10.1099 27.375 10.1099 27.4094Z" fill="#6C63FF"/>
<path d="M9.77818 33.3764C9.79188 33.3935 9.80929 33.4074 9.82911 33.4169C9.84892 33.4263 9.87063 33.4312 9.8926 33.4311H17.899C17.9209 33.4311 17.9425 33.4262 17.9622 33.4167C17.982 33.4073 17.9994 33.3936 18.0132 33.3766C18.027 33.3596 18.0368 33.3397 18.042 33.3184C18.0471 33.2971 18.0475 33.275 18.043 33.2536L17.9187 32.6632C17.9135 32.6391 17.9025 32.6167 17.8864 32.598C17.8704 32.5793 17.85 32.565 17.827 32.5562C17.8103 32.5497 17.7926 32.5463 17.7747 32.5463H10.0164C9.9985 32.5463 9.98077 32.5497 9.96411 32.5562C9.94111 32.565 9.92066 32.5793 9.90464 32.598C9.88862 32.6167 9.87753 32.6391 9.87238 32.6632L9.7481 33.2536C9.74367 33.275 9.74408 33.2971 9.74928 33.3183C9.75449 33.3396 9.76436 33.3594 9.77818 33.3764Z" fill="#2F2E41"/>
<path d="M17.4999 32.8006H17.689C17.7049 32.8006 17.7178 32.7877 17.7178 32.7719V32.6814C17.7178 32.6655 17.7049 32.6526 17.689 32.6526H17.4999C17.484 32.6526 17.4712 32.6655 17.4712 32.6814V32.7719C17.4712 32.7877 17.484 32.8006 17.4999 32.8006Z" fill="#3F3D56"/>
<path d="M17.0068 32.8006H17.1959C17.2117 32.8006 17.2246 32.7877 17.2246 32.7719V32.6814C17.2246 32.6655 17.2117 32.6526 17.1959 32.6526H17.0068C16.9909 32.6526 16.978 32.6655 16.978 32.6814V32.7719C16.978 32.7877 16.9909 32.8006 17.0068 32.8006Z" fill="#3F3D56"/>
<path d="M16.5136 32.8006H16.7027C16.7186 32.8006 16.7314 32.7877 16.7314 32.7719V32.6814C16.7314 32.6655 16.7186 32.6526 16.7027 32.6526H16.5136C16.4977 32.6526 16.4849 32.6655 16.4849 32.6814V32.7719C16.4849 32.7877 16.4977 32.8006 16.5136 32.8006Z" fill="#3F3D56"/>
<path d="M16.0204 32.8006H16.2095C16.2254 32.8006 16.2382 32.7877 16.2382 32.7719V32.6814C16.2382 32.6655 16.2254 32.6526 16.2095 32.6526H16.0204C16.0045 32.6526 15.9916 32.6655 15.9916 32.6814V32.7719C15.9916 32.7877 16.0045 32.8006 16.0204 32.8006Z" fill="#3F3D56"/>
<path d="M15.5272 32.8006H15.7163C15.7322 32.8006 15.7451 32.7877 15.7451 32.7719V32.6814C15.7451 32.6655 15.7322 32.6526 15.7163 32.6526H15.5272C15.5113 32.6526 15.4985 32.6655 15.4985 32.6814V32.7719C15.4985 32.7877 15.5113 32.8006 15.5272 32.8006Z" fill="#3F3D56"/>
<path d="M15.034 32.8006H15.2232C15.239 32.8006 15.2519 32.7877 15.2519 32.7719V32.6814C15.2519 32.6655 15.239 32.6526 15.2232 32.6526H15.034C15.0182 32.6526 15.0053 32.6655 15.0053 32.6814V32.7719C15.0053 32.7877 15.0182 32.8006 15.034 32.8006Z" fill="#3F3D56"/>
<path d="M14.5408 32.8006H14.7299C14.7458 32.8006 14.7587 32.7877 14.7587 32.7719V32.6814C14.7587 32.6655 14.7458 32.6526 14.7299 32.6526H14.5408C14.5249 32.6526 14.5121 32.6655 14.5121 32.6814V32.7719C14.5121 32.7877 14.5249 32.8006 14.5408 32.8006Z" fill="#3F3D56"/>
<path d="M14.0477 32.8006H14.2368C14.2526 32.8006 14.2655 32.7877 14.2655 32.7719V32.6814C14.2655 32.6655 14.2526 32.6526 14.2368 32.6526H14.0477C14.0318 32.6526 14.0189 32.6655 14.0189 32.6814V32.7719C14.0189 32.7877 14.0318 32.8006 14.0477 32.8006Z" fill="#3F3D56"/>
<path d="M13.5545 32.8006H13.7436C13.7595 32.8006 13.7723 32.7877 13.7723 32.7719V32.6814C13.7723 32.6655 13.7595 32.6526 13.7436 32.6526H13.5545C13.5386 32.6526 13.5257 32.6655 13.5257 32.6814V32.7719C13.5257 32.7877 13.5386 32.8006 13.5545 32.8006Z" fill="#3F3D56"/>
<path d="M13.0613 32.8006H13.2504C13.2662 32.8006 13.2791 32.7877 13.2791 32.7719V32.6814C13.2791 32.6655 13.2662 32.6526 13.2504 32.6526H13.0613C13.0454 32.6526 13.0325 32.6655 13.0325 32.6814V32.7719C13.0325 32.7877 13.0454 32.8006 13.0613 32.8006Z" fill="#3F3D56"/>
<path d="M12.5681 32.8006H12.7572C12.7731 32.8006 12.7859 32.7877 12.7859 32.7719V32.6814C12.7859 32.6655 12.7731 32.6526 12.7572 32.6526H12.5681C12.5522 32.6526 12.5394 32.6655 12.5394 32.6814V32.7719C12.5394 32.7877 12.5522 32.8006 12.5681 32.8006Z" fill="#3F3D56"/>
<path d="M12.0749 32.8006H12.264C12.2799 32.8006 12.2928 32.7877 12.2928 32.7719V32.6814C12.2928 32.6655 12.2799 32.6526 12.264 32.6526H12.0749C12.0591 32.6526 12.0462 32.6655 12.0462 32.6814V32.7719C12.0462 32.7877 12.0591 32.8006 12.0749 32.8006Z" fill="#3F3D56"/>
<path d="M11.5817 32.8006H11.7708C11.7867 32.8006 11.7996 32.7877 11.7996 32.7719V32.6814C11.7996 32.6655 11.7867 32.6526 11.7708 32.6526H11.5817C11.5658 32.6526 11.553 32.6655 11.553 32.6814V32.7719C11.553 32.7877 11.5658 32.8006 11.5817 32.8006Z" fill="#3F3D56"/>
<path d="M11.0885 32.8006H11.2777C11.2935 32.8006 11.3064 32.7877 11.3064 32.7719V32.6814C11.3064 32.6655 11.2935 32.6526 11.2777 32.6526H11.0885C11.0727 32.6526 11.0598 32.6655 11.0598 32.6814V32.7719C11.0598 32.7877 11.0727 32.8006 11.0885 32.8006Z" fill="#3F3D56"/>
<path d="M10.5954 32.8006H10.7845C10.8004 32.8006 10.8132 32.7877 10.8132 32.7719V32.6814C10.8132 32.6655 10.8004 32.6526 10.7845 32.6526H10.5954C10.5795 32.6526 10.5666 32.6655 10.5666 32.6814V32.7719C10.5666 32.7877 10.5795 32.8006 10.5954 32.8006Z" fill="#3F3D56"/>
<path d="M10.1022 32.8006H10.2913C10.3071 32.8006 10.32 32.7877 10.32 32.7719V32.6814C10.32 32.6655 10.3071 32.6526 10.2913 32.6526H10.1022C10.0863 32.6526 10.0734 32.6655 10.0734 32.6814V32.7719C10.0734 32.7877 10.0863 32.8006 10.1022 32.8006Z" fill="#3F3D56"/>
<path d="M17.5058 33.0472H17.6949C17.7108 33.0472 17.7236 33.0343 17.7236 33.0184V32.928C17.7236 32.9121 17.7108 32.8992 17.6949 32.8992H17.5058C17.4899 32.8992 17.477 32.9121 17.477 32.928V33.0184C17.477 33.0343 17.4899 33.0472 17.5058 33.0472Z" fill="#3F3D56"/>
<path d="M17.0126 33.0472H17.2017C17.2176 33.0472 17.2305 33.0343 17.2305 33.0184V32.928C17.2305 32.9121 17.2176 32.8992 17.2017 32.8992H17.0126C16.9967 32.8992 16.9839 32.9121 16.9839 32.928V33.0184C16.9839 33.0343 16.9967 33.0472 17.0126 33.0472Z" fill="#3F3D56"/>
<path d="M16.5194 33.0472H16.7085C16.7244 33.0472 16.7372 33.0343 16.7372 33.0184V32.928C16.7372 32.9121 16.7244 32.8992 16.7085 32.8992H16.5194C16.5035 32.8992 16.4907 32.9121 16.4907 32.928V33.0184C16.4907 33.0343 16.5035 33.0472 16.5194 33.0472Z" fill="#3F3D56"/>
<path d="M16.0262 33.0472H16.2153C16.2312 33.0472 16.2441 33.0343 16.2441 33.0184V32.928C16.2441 32.9121 16.2312 32.8992 16.2153 32.8992H16.0262C16.0104 32.8992 15.9975 32.9121 15.9975 32.928V33.0184C15.9975 33.0343 16.0104 33.0472 16.0262 33.0472Z" fill="#3F3D56"/>
<path d="M15.5331 33.0472H15.7222C15.738 33.0472 15.7509 33.0343 15.7509 33.0184V32.928C15.7509 32.9121 15.738 32.8992 15.7222 32.8992H15.5331C15.5172 32.8992 15.5043 32.9121 15.5043 32.928V33.0184C15.5043 33.0343 15.5172 33.0472 15.5331 33.0472Z" fill="#3F3D56"/>
<path d="M15.0398 33.0472H15.2289C15.2448 33.0472 15.2577 33.0343 15.2577 33.0184V32.928C15.2577 32.9121 15.2448 32.8992 15.2289 32.8992H15.0398C15.024 32.8992 15.0111 32.9121 15.0111 32.928V33.0184C15.0111 33.0343 15.024 33.0472 15.0398 33.0472Z" fill="#3F3D56"/>
<path d="M14.5467 33.0472H14.7358C14.7517 33.0472 14.7645 33.0343 14.7645 33.0184V32.928C14.7645 32.9121 14.7517 32.8992 14.7358 32.8992H14.5467C14.5308 32.8992 14.5179 32.9121 14.5179 32.928V33.0184C14.5179 33.0343 14.5308 33.0472 14.5467 33.0472Z" fill="#3F3D56"/>
<path d="M14.0534 33.0472H14.2426C14.2584 33.0472 14.2713 33.0343 14.2713 33.0184V32.928C14.2713 32.9121 14.2584 32.8992 14.2426 32.8992H14.0534C14.0376 32.8992 14.0247 32.9121 14.0247 32.928V33.0184C14.0247 33.0343 14.0376 33.0472 14.0534 33.0472Z" fill="#3F3D56"/>
<path d="M13.5603 33.0472H13.7494C13.7653 33.0472 13.7781 33.0343 13.7781 33.0184V32.928C13.7781 32.9121 13.7653 32.8992 13.7494 32.8992H13.5603C13.5444 32.8992 13.5315 32.9121 13.5315 32.928V33.0184C13.5315 33.0343 13.5444 33.0472 13.5603 33.0472Z" fill="#3F3D56"/>
<path d="M13.0671 33.0472H13.2562C13.2721 33.0472 13.285 33.0343 13.285 33.0184V32.928C13.285 32.9121 13.2721 32.8992 13.2562 32.8992H13.0671C13.0512 32.8992 13.0384 32.9121 13.0384 32.928V33.0184C13.0384 33.0343 13.0512 33.0472 13.0671 33.0472Z" fill="#3F3D56"/>
<path d="M12.5739 33.0472H12.763C12.7789 33.0472 12.7917 33.0343 12.7917 33.0184V32.928C12.7917 32.9121 12.7789 32.8992 12.763 32.8992H12.5739C12.558 32.8992 12.5452 32.9121 12.5452 32.928V33.0184C12.5452 33.0343 12.558 33.0472 12.5739 33.0472Z" fill="#3F3D56"/>
<path d="M12.0807 33.0472H12.2698C12.2857 33.0472 12.2986 33.0343 12.2986 33.0184V32.928C12.2986 32.9121 12.2857 32.8992 12.2698 32.8992H12.0807C12.0649 32.8992 12.052 32.9121 12.052 32.928V33.0184C12.052 33.0343 12.0649 33.0472 12.0807 33.0472Z" fill="#3F3D56"/>
<path d="M11.5876 33.0472H11.7767C11.7926 33.0472 11.8054 33.0343 11.8054 33.0184V32.928C11.8054 32.9121 11.7926 32.8992 11.7767 32.8992H11.5876C11.5717 32.8992 11.5588 32.9121 11.5588 32.928V33.0184C11.5588 33.0343 11.5717 33.0472 11.5876 33.0472Z" fill="#3F3D56"/>
<path d="M11.0943 33.0472H11.2835C11.2993 33.0472 11.3122 33.0343 11.3122 33.0184V32.928C11.3122 32.9121 11.2993 32.8992 11.2835 32.8992H11.0943C11.0785 32.8992 11.0656 32.9121 11.0656 32.928V33.0184C11.0656 33.0343 11.0785 33.0472 11.0943 33.0472Z" fill="#3F3D56"/>
<path d="M10.6012 33.0472H10.7903C10.8062 33.0472 10.819 33.0343 10.819 33.0184V32.928C10.819 32.9121 10.8062 32.8992 10.7903 32.8992H10.6012C10.5853 32.8992 10.5724 32.9121 10.5724 32.928V33.0184C10.5724 33.0343 10.5853 33.0472 10.6012 33.0472Z" fill="#3F3D56"/>
<path d="M10.108 33.0472H10.2971C10.313 33.0472 10.3259 33.0343 10.3259 33.0184V32.928C10.3259 32.9121 10.313 32.8992 10.2971 32.8992H10.108C10.0921 32.8992 10.0793 32.9121 10.0793 32.928V33.0184C10.0793 33.0343 10.0921 33.0472 10.108 33.0472Z" fill="#3F3D56"/>
<path d="M13.4123 33.3431H15.3276C15.3435 33.3431 15.3563 33.3302 15.3563 33.3143V33.2239C15.3563 33.208 15.3435 33.1951 15.3276 33.1951H13.4123C13.3964 33.1951 13.3836 33.208 13.3836 33.2239V33.3143C13.3836 33.3302 13.3964 33.3431 13.4123 33.3431Z" fill="#3F3D56"/>
<path d="M27.845 33.102L31.1914 30.1763C31.3505 30.0372 31.047 30.4516 31.1862 30.6108C31.3253 30.7699 31.8542 30.6134 31.6951 30.7525L28.3487 33.6782L27.5013 33.8717L27.845 33.102Z" fill="#3F3D56"/>
<path d="M27.845 33.102L27.9261 33.0311C28.0344 33.0853 28.131 33.1603 28.2104 33.2517C28.3046 33.359 28.373 33.4865 28.4103 33.6243L28.3487 33.6782L27.6733 33.8323L27.5013 33.8717L27.573 33.7104L27.845 33.102Z" fill="#CCCCCC"/>
<path d="M27.573 33.7104C27.5981 33.7214 27.6202 33.7382 27.6377 33.7594C27.6551 33.7806 27.6673 33.8055 27.6733 33.8323L27.5013 33.8716L27.573 33.7104Z" fill="#3F3D56"/>
<path d="M49.6789 23.725C49.3633 24.1971 48.8582 24.5239 48.3142 24.6858C48.0932 24.7516 47.8651 24.7903 47.6348 24.8012C47.6064 24.5408 47.5383 24.2863 47.4329 24.0464C47.4436 24.3017 47.4081 24.5568 47.3281 24.7994C46.9823 24.7798 46.6442 24.6892 46.3349 24.5333C45.7314 24.2242 45.2669 23.6331 45.1639 22.9626C45.0426 22.1795 45.3976 21.4106 45.526 20.6288C45.6549 19.847 45.4129 18.8567 44.6476 18.6512C44.0647 18.4946 44.1301 18.5623 43.6455 18.9221C44.1495 19.6673 42.2879 22.3983 41.5261 22.1601C41.0953 22.0255 40.8196 21.6302 40.7307 21.6302C40.1319 22.6617 41.2594 24.3997 40.1231 24.7606L40.2167 24.667C40.9026 23.8233 39.469 22.0377 40.1549 21.194C40.3462 20.9579 40.5499 20.6783 40.4934 20.3798C40.4398 20.096 39.9895 19.9459 39.8576 20.179C40.0948 19.6356 39.7445 18.9103 39.1646 18.7707C38.6495 18.6465 38.6589 18.7996 38.142 18.8661C38.1082 18.6427 38.0451 18.4248 37.9542 18.2179C37.9637 18.4408 37.9376 18.6638 37.8771 18.8785C37.6945 18.8749 37.5181 18.8112 37.3755 18.6972C36.9539 18.3574 37.0393 17.6439 37.4155 17.2547C37.7923 16.8656 38.3522 16.7255 38.8862 16.6348C39.0414 15.5538 42.0239 15.4411 42.4192 16.5212C42.5876 15.7146 43.5972 15.296 44.382 15.5462C45.1668 15.7964 45.7114 16.5294 45.9981 17.3018C46.2848 18.0737 46.3649 18.9044 46.5415 19.7086C46.7181 20.5128 47.0166 21.3318 47.6313 21.8799C48.2459 22.4274 49.2474 22.6087 49.895 22.1001C50.0993 22.6299 49.9939 23.2522 49.6789 23.725Z" fill="#2F2E41"/>
</g>
<defs>
<clipPath id="clip0_6_131">
<rect width="50" height="49.5719" fill="white"/>
</clipPath>
</defs>
</svg>
